<svg width="86" height="64" viewBox="0 0 86 64" fill="none" xmlns="http://www.w3.org/2000/svg">
<path opacity="0.29" d="M51.6093 54.766L52.4559 54.2338L52.4488 54.2225L52.4413 54.2113L51.6093 54.766ZM48.1213 46.7L47.1565 46.9631L48.1213 46.7ZM52.6993 16.18L53.5405 16.7208L53.5451 16.7136L53.5496 16.7064L52.6993 16.18ZM69.7033 1.792L70.5977 1.34479L70.1643 0.47788L69.2842 0.884046L69.7033 1.792ZM71.6653 5.716L72.0477 6.64002L73.04 6.22938L72.5597 5.26879L71.6653 5.716ZM60.7653 13.782L61.516 14.4426L61.5236 14.434L61.531 14.4252L60.7653 13.782ZM55.0973 24.9L56.0674 25.1425L56.0786 25.0977L56.0857 25.0521L55.0973 24.9ZM55.0973 34.056L54.1486 34.3722L54.686 35.9845L55.8345 34.7317L55.0973 34.056ZM80.1673 33.184L80.8578 32.4606L80.849 32.4522L80.84 32.4441L80.1673 33.184ZM79.9493 57.6L79.275 56.8615L79.2665 56.8693L79.2581 56.8774L79.9493 57.6ZM6.7013 54.766L7.54793 54.2338L7.54079 54.2225L7.53334 54.2113L6.7013 54.766ZM3.21329 46.7L2.24853 46.9631L3.21329 46.7ZM7.7913 16.18L8.63247 16.7208L8.63707 16.7136L8.64156 16.7064L7.7913 16.18ZM24.7953 1.792L25.6897 1.34479L25.2563 0.477876L24.3762 0.884042L24.7953 1.792ZM26.7573 5.716L27.1397 6.64002L28.132 6.22938L27.6517 5.26878L26.7573 5.716ZM15.8573 13.782L16.608 14.4426L16.6156 14.434L16.623 14.4252L15.8573 13.782ZM10.1893 24.9L11.1594 25.1425L11.1706 25.0977L11.1777 25.0521L10.1893 24.9ZM10.1893 34.056L9.24061 34.3722L9.77804 35.9845L10.9264 34.7317L10.1893 34.056ZM35.2593 33.184L35.9498 32.4606L35.941 32.4522L35.932 32.4441L35.2593 33.184ZM35.0413 57.6L34.367 56.8615L34.3585 56.8693L34.3501 56.8774L35.0413 57.6ZM67.0873 61.396C60.2355 61.396 55.4339 58.9716 52.4559 54.2338L50.7627 55.2982C54.1793 60.7338 59.6964 63.396 67.0873 63.396L67.0873 61.396ZM52.4413 54.2113C51.061 52.1408 49.9369 49.5567 49.0861 46.4369L47.1565 46.9631C48.0497 50.238 49.2509 53.0312 50.7772 55.3207L52.4413 54.2113ZM49.0861 46.4369C48.2386 43.3297 47.8133 40.0758 47.8133 36.672L45.8133 36.672C45.8133 40.2442 46.26 43.6756 47.1565 46.9631L49.0861 46.4369ZM47.8133 36.672C47.8133 29.298 49.7246 22.6566 53.5405 16.7208L51.8581 15.6392C47.826 21.9114 45.8133 28.9313 45.8133 36.672L47.8133 36.672ZM53.5496 16.7064C57.2094 10.7944 62.714 6.11921 70.1224 2.69996L69.2842 0.884046C61.578 4.44079 55.7466 9.35762 51.849 15.6537L53.5496 16.7064ZM68.8089 2.23922L70.7709 6.16321L72.5597 5.26879L70.5977 1.34479L68.8089 2.23922ZM71.2829 4.79198C66.9137 6.59994 63.1507 9.38755 59.9996 13.1388L61.531 14.4252C64.4839 10.9098 67.9875 8.32007 72.0477 6.64002L71.2829 4.79198ZM60.0146 13.1214C56.7244 16.8602 54.7261 20.7362 54.1089 24.7479L56.0857 25.0521C56.6311 21.5065 58.4115 17.9705 61.516 14.4426L60.0146 13.1214ZM54.1272 24.6575C53.6737 26.4711 53.4433 28.2242 53.4433 29.914L55.4433 29.914C55.4433 28.4065 55.6489 26.8169 56.0674 25.1425L54.1272 24.6575ZM53.4433 29.914C53.4433 31.469 53.6768 32.9569 54.1486 34.3722L56.046 33.7398C55.6458 32.5391 55.4433 31.2657 55.4433 29.914L53.4433 29.914ZM55.8345 34.7317C58.8212 31.4735 62.7566 29.824 67.7413 29.824L67.7413 27.824C62.262 27.824 57.7681 29.6625 54.3601 33.3803L55.8345 34.7317ZM67.7413 29.824C72.626 29.824 76.5133 31.2136 79.4946 33.9239L80.84 32.4441C77.4267 29.341 73.03 27.824 67.7413 27.824L67.7413 29.824ZM79.4768 33.9074C82.4403 36.7362 83.9633 40.5969 83.9633 45.61L85.9633 45.61C85.9633 40.1591 84.2889 35.7358 80.8578 32.4606L79.4768 33.9074ZM83.9633 45.61C83.9633 50.2991 82.3898 54.0176 79.275 56.8615L80.6236 58.3385C84.1941 55.0784 85.9633 50.8035 85.9633 45.61L83.9633 45.61ZM79.2581 56.8774C76.1263 59.8729 72.0983 61.396 67.0873 61.396L67.0873 63.396C72.5403 63.396 77.0869 61.7217 80.6405 58.3226L79.2581 56.8774ZM22.1793 61.396C15.3275 61.396 10.5259 58.9716 7.54793 54.2338L5.85465 55.2982C9.27133 60.7338 14.7884 63.396 22.1793 63.396L22.1793 61.396ZM7.53334 54.2113C6.15302 52.1408 5.02892 49.5567 4.17806 46.4369L2.24853 46.9631C3.14167 50.238 4.3429 53.0312 5.86924 55.3207L7.53334 54.2113ZM4.17806 46.4369C3.33065 43.3297 2.9053 40.0758 2.9053 36.672L0.905299 36.672C0.905299 40.2442 1.35195 43.6756 2.24853 46.9631L4.17806 46.4369ZM2.9053 36.672C2.9053 29.298 4.8166 22.6566 8.63247 16.7208L6.95012 15.6392C2.91799 21.9114 0.9053 28.9313 0.905299 36.672L2.9053 36.672ZM8.64156 16.7064C12.3014 10.7944 17.806 6.11921 25.2144 2.69996L24.3762 0.884042C16.67 4.44079 10.8386 9.35762 6.94103 15.6536L8.64156 16.7064ZM23.9009 2.23921L25.8629 6.16321L27.6517 5.26878L25.6897 1.34479L23.9009 2.23921ZM26.3749 4.79198C22.0057 6.59994 18.2427 9.38755 15.0916 13.1388L16.623 14.4252C19.5759 10.9098 23.0795 8.32006 27.1397 6.64002L26.3749 4.79198ZM15.1066 13.1214C11.8164 16.8602 9.81812 20.7362 9.20092 24.7479L11.1777 25.0521C11.7231 21.5065 13.5035 17.9705 16.608 14.4426L15.1066 13.1214ZM9.21915 24.6575C8.76574 26.4711 8.5353 28.2242 8.5353 29.914L10.5353 29.914C10.5353 28.4065 10.7408 26.8169 11.1594 25.1425L9.21915 24.6575ZM8.5353 29.914C8.5353 31.469 8.76883 32.9569 9.24061 34.3722L11.138 33.7398C10.7378 32.5391 10.5353 31.2657 10.5353 29.914L8.5353 29.914ZM10.9264 34.7317C13.9132 31.4735 17.8486 29.824 22.8333 29.824L22.8333 27.824C17.354 27.824 12.8601 29.6625 9.45214 33.3803L10.9264 34.7317ZM22.8333 29.824C27.718 29.824 31.6053 31.2136 34.5866 33.9239L35.932 32.4441C32.5187 29.341 28.122 27.824 22.8333 27.824L22.8333 29.824ZM34.5688 33.9074C37.5323 36.7362 39.0553 40.5969 39.0553 45.61L41.0553 45.61C41.0553 40.1591 39.3809 35.7358 35.9498 32.4606L34.5688 33.9074ZM39.0553 45.61C39.0553 50.2991 37.4818 54.0176 34.367 56.8615L35.7156 58.3385C39.2861 55.0784 41.0553 50.8035 41.0553 45.61L39.0553 45.61ZM34.3501 56.8774C31.2183 59.8729 27.1903 61.396 22.1793 61.396L22.1793 63.396C27.6323 63.396 32.1789 61.7217 35.7325 58.3226L34.3501 56.8774Z" fill="#964F4C"/>
</svg>
