<svg width="86" height="64" viewBox="0 0 86 64" fill="none" xmlns="http://www.w3.org/2000/svg">
<path opacity="0.29" d="M34.3907 9.23399L33.5441 9.76616L33.5512 9.77752L33.5587 9.78869L34.3907 9.23399ZM37.8787 17.3L38.8435 17.0369L37.8787 17.3ZM33.3007 47.82L32.4595 47.2792L32.4549 47.2864L32.4504 47.2936L33.3007 47.82ZM16.2967 62.208L15.4023 62.6552L15.8357 63.5221L16.7158 63.116L16.2967 62.208ZM14.3347 58.284L13.9524 57.36L12.96 57.7706L13.4403 58.7312L14.3347 58.284ZM25.2347 50.218L24.484 49.5574L24.4764 49.566L24.469 49.5748L25.2347 50.218ZM30.9027 39.1L29.9326 38.8575L29.9214 38.9023L29.9143 38.9479L30.9027 39.1ZM30.9027 29.944L31.8514 29.6278L31.314 28.0155L30.1656 29.2683L30.9027 29.944ZM5.8327 30.816L5.14223 31.5394L5.15103 31.5478L5.16003 31.5559L5.8327 30.816ZM6.0507 6.39999L6.72497 7.13847L6.73354 7.13065L6.74193 7.12263L6.0507 6.39999ZM79.2987 9.23399L78.4521 9.76616L78.4592 9.77752L78.4667 9.78869L79.2987 9.23399ZM82.7867 17.3L83.7515 17.0369L82.7867 17.3ZM78.2087 47.82L77.3675 47.2792L77.3629 47.2864L77.3584 47.2936L78.2087 47.82ZM61.2047 62.208L60.3103 62.6552L60.7437 63.5221L61.6238 63.116L61.2047 62.208ZM59.2427 58.284L58.8604 57.36L57.868 57.7706L58.3483 58.7312L59.2427 58.284ZM70.1427 50.218L69.392 49.5574L69.3844 49.566L69.377 49.5748L70.1427 50.218ZM75.8107 39.1L74.8406 38.8575L74.8294 38.9023L74.8223 38.9479L75.8107 39.1ZM75.8107 29.944L76.7594 29.6278L76.222 28.0155L75.0736 29.2683L75.8107 29.944ZM50.7407 30.816L50.0502 31.5394L50.059 31.5478L50.068 31.5559L50.7407 30.816ZM50.9587 6.39999L51.633 7.13847L51.6415 7.13065L51.6499 7.12263L50.9587 6.39999ZM18.9127 2.60399C25.7645 2.60399 30.5661 5.02844 33.5441 9.76616L35.2373 8.70182C31.8207 3.26621 26.3036 0.603986 18.9127 0.603986V2.60399ZM33.5587 9.78869C34.939 11.8592 36.0631 14.4433 36.9139 17.5631L38.8435 17.0369C37.9503 13.762 36.7491 10.9688 35.2228 8.67929L33.5587 9.78869ZM36.9139 17.5631C37.7614 20.6703 38.1867 23.9242 38.1867 27.328H40.1867C40.1867 23.7558 39.7401 20.3243 38.8435 17.0369L36.9139 17.5631ZM38.1867 27.328C38.1867 34.7019 36.2754 41.3434 32.4595 47.2792L34.1419 48.3607C38.174 42.0886 40.1867 35.0687 40.1867 27.328H38.1867ZM32.4504 47.2936C28.7906 53.2056 23.286 57.8808 15.8776 61.3L16.7158 63.116C24.4221 59.5592 30.2534 54.6424 34.151 48.3463L32.4504 47.2936ZM17.1911 61.7608L15.2291 57.8368L13.4403 58.7312L15.4023 62.6552L17.1911 61.7608ZM14.7171 59.208C19.0863 57.4001 22.8494 54.6124 26.0004 50.8612L24.469 49.5748C21.5161 53.0902 18.0125 55.6799 13.9524 57.36L14.7171 59.208ZM25.9854 50.8786C29.2756 47.1398 31.2739 43.2638 31.8911 39.2521L29.9143 38.9479C29.3689 42.4935 27.5885 46.0295 24.484 49.5574L25.9854 50.8786ZM31.8728 39.3425C32.3263 37.5289 32.5567 35.7758 32.5567 34.086H30.5567C30.5567 35.5935 30.3512 37.1831 29.9326 38.8575L31.8728 39.3425ZM32.5567 34.086C32.5567 32.531 32.3232 31.0431 31.8514 29.6278L29.954 30.2602C30.3542 31.4609 30.5567 32.7343 30.5567 34.086H32.5567ZM30.1656 29.2683C27.1788 32.5265 23.2434 34.176 18.2587 34.176V36.176C23.738 36.176 28.2319 34.3375 31.6399 30.6197L30.1656 29.2683ZM18.2587 34.176C13.374 34.176 9.48673 32.7864 6.50538 30.0761L5.16003 31.5559C8.57335 34.659 12.9701 36.176 18.2587 36.176V34.176ZM6.52318 30.0926C3.55967 27.2638 2.0367 23.4031 2.0367 18.39H0.0367031C0.0367031 23.8409 1.71107 28.2642 5.14223 31.5394L6.52318 30.0926ZM2.0367 18.39C2.0367 13.7009 3.61016 9.98244 6.72497 7.13847L5.37643 5.6615C1.80591 8.92155 0.0367031 13.1965 0.0367031 18.39H2.0367ZM6.74193 7.12263C9.87366 4.12705 13.9017 2.60399 18.9127 2.60399V0.603986C13.4597 0.603986 8.91308 2.27825 5.35948 5.67735L6.74193 7.12263ZM63.8207 2.60399C70.6725 2.60399 75.4741 5.02844 78.4521 9.76616L80.1453 8.70182C76.7287 3.26621 71.2116 0.603986 63.8207 0.603986V2.60399ZM78.4667 9.78869C79.847 11.8592 80.9711 14.4433 81.8219 17.5631L83.7515 17.0369C82.8583 13.762 81.6571 10.9688 80.1308 8.67929L78.4667 9.78869ZM81.8219 17.5631C82.6694 20.6703 83.0947 23.9242 83.0947 27.328H85.0947C85.0947 23.7558 84.6481 20.3243 83.7515 17.0369L81.8219 17.5631ZM83.0947 27.328C83.0947 34.7019 81.1834 41.3434 77.3675 47.2792L79.0499 48.3607C83.082 42.0885 85.0947 35.0687 85.0947 27.328H83.0947ZM77.3584 47.2936C73.6986 53.2056 68.194 57.8808 60.7857 61.3L61.6238 63.116C69.3301 59.5592 75.1614 54.6424 79.059 48.3463L77.3584 47.2936ZM62.0991 61.7608L60.1371 57.8368L58.3483 58.7312L60.3103 62.6552L62.0991 61.7608ZM59.6251 59.208C63.9943 57.4001 67.7574 54.6124 70.9084 50.8612L69.377 49.5748C66.4241 53.0902 62.9205 55.6799 58.8604 57.36L59.6251 59.208ZM70.8934 50.8786C74.1836 47.1398 76.1819 43.2638 76.7991 39.2521L74.8223 38.9479C74.2769 42.4935 72.4965 46.0295 69.392 49.5574L70.8934 50.8786ZM76.7809 39.3425C77.2343 37.5289 77.4647 35.7758 77.4647 34.086H75.4647C75.4647 35.5935 75.2592 37.1831 74.8406 38.8575L76.7809 39.3425ZM77.4647 34.086C77.4647 32.531 77.2312 31.0431 76.7594 29.6278L74.862 30.2602C75.2622 31.4609 75.4647 32.7343 75.4647 34.086H77.4647ZM75.0736 29.2683C72.0868 32.5265 68.1514 34.176 63.1667 34.176V36.176C68.646 36.176 73.1399 34.3375 76.5479 30.6197L75.0736 29.2683ZM63.1667 34.176C58.282 34.176 54.3947 32.7864 51.4134 30.0761L50.068 31.5559C53.4813 34.659 57.8781 36.176 63.1667 36.176V34.176ZM51.4312 30.0926C48.4677 27.2638 46.9447 23.4031 46.9447 18.39H44.9447C44.9447 23.8409 46.6191 28.2642 50.0502 31.5394L51.4312 30.0926ZM46.9447 18.39C46.9447 13.7009 48.5182 9.98244 51.633 7.13847L50.2844 5.6615C46.7139 8.92155 44.9447 13.1965 44.9447 18.39H46.9447ZM51.6499 7.12263C54.7817 4.12705 58.8097 2.60399 63.8207 2.60399V0.603986C58.3677 0.603986 53.8211 2.27825 50.2675 5.67735L51.6499 7.12263Z" fill="#964F4C"/>
</svg>
